<?xml version="1.0" encoding="UTF-8"?><svg id="Calque_2" xmlns="http://www.w3.org/2000/svg" viewBox="0 0 2314 2314"><defs><style>.cls-1{fill:#75007c;}.cls-2{fill:#fff;fill-rule:evenodd;}.cls-3{fill:#ce00ce;}.cls-4{fill:#1217fc;}.cls-5{fill:#ed00e1;}.cls-6{stroke-linejoin:round;}.cls-6,.cls-7{fill:none;stroke:#fff;stroke-linecap:round;stroke-width:45px;}</style></defs><g id="Calque_1-2"><circle class="cls-4" cx="1157" cy="1157" r="1157"/><path class="cls-1" d="M134.46,1210.04s-23.55,92.24,149.99,146.82c10.59,3.33,21.61,5.1,32.71,5.26,6.6.1,13.98-.07,20.29-.87,41.55-5.31,180.2-23.82,206.1-17.61,25.89,6.21-5.18,79.75-25.89,91.14-16.06,8.83-32.12,17.66-63.14,13.95-17.78-2.13-33.47-12.75-41.96-28.52-10.57-19.63-24.17-33.52-46.29-36.06-37.33-4.29,36.11,45.41,17.79,55.81-6.86,3.89-20.71,13.46-79.75-20.71-59.03-34.18-30.87,8.7-17.73,18.55,5.56,4.17,46.91,27.67,45.7,45.66-.98,14.61-112.97,17.98-69.15,37.37,24.39,10.79,50.51-2.16,90.9,3.02,40.39,5.18-48.69,54.14-17.62,60.35s45.58-50,83.9-53.1c36.25-2.94,174.46,18.22,229.61-85.59,6.37-12,20.87-17.16,33.25-11.58,5.51,2.48,12.08,5.78,19.87,10.17,24.64,13.9,378.43,169.08,546.7-28.79,0,0-1.94-4.82,9.76,1.03,11.7,5.85,5.85,109.48,110.31,103.63s96.94-72.71,122.85-71.04,8.36,68.53,36.77,77.72c28.41,9.19,11.59-65.2,28.3-69.37,16.71-4.18,65.3,60.18,84.52,54.33,19.22-5.85,10.86-37.61-40.11-74.38-50.98-36.77,78.56-10.03,90.26-43.46,11.7-33.43-79.39-.84-96.11-20.89-16.71-20.06,32.39-64.74,4.81-59.73-27.58,5.01-30.63,42.89-65.36,53.18-34.99,10.37-203.53,83.44-160.08-32.73,43.1-115.2,567.32-91.66,802.83,162.56.98,1.05,2.65-.13,1.98-1.4-26.92-50.84-204.03-333.22-832.08-367.7,0,0-92.29-6.59-79.11-93.94,6.4-42.4,33.59-86.64,68.56-103.28,37.08-17.65,82.13-6.83,92.31-22.95,19.78-31.31-95.21-5.6-90.27-27.03,4.94-21.43,51.78-102.63,28.7-100.98-23.07,1.65-60.2,96.52-72.14,90.05-31.01-16.8-27.14-93.07-48.56-84.81-21.43,8.26,18.73,93.39-6.73,96.8-7.85,1.05-10.6.61-19.29-4.03-13.76-7.35-21.44-37.53-42.54-35.12-17.41,1.99-4.09,57.63,47.27,67.9,19.73,3.94,26.3,41.24-11.69,57.53-45.82,19.65-103.4,81.65-94.88,123.71,15.5,76.5,75.75,65.98,24.11,110.93-53.44,46.51-266.27-8.53-392.35-48.4,0,0-44.04-10.36-85.04-108.02-12.72-30.29-36.66-54.54-67-67.12-12.19-5.06-25.22-9.73-37.49-12.74-40.38-9.89-30.66-64.66-34.17-85.52-6.69-39.76-47.94-46.45-38.72-19.12,18.4,54.55,22.62,83.21-10.34,58.49s-64.29-40.98-72.51-30.7c-17.06,21.32,57.85,43.61,54.37,61.84-2.13,11.19-84.76,9.06-84.18,28.21.85,28.06,65.96-4.48,100.17,24.03,16.78,13.98-6.87,61.82,3.29,72.44,14.97,15.66,45.25-55.12,69.21-47.54,38.31,12.13,75.52,104.94,55.23,138.42-11.95,19.71-111.76-14.63-169.87-43.34-140.09-69.22-293.74,7.09-300.25,87.28Z"/><path class="cls-5" d="M2175.27,1446.79c-235.51-254.21-759.73-277.75-802.83-162.55-43.45,116.16,125.09,43.09,160.08,32.72,34.72-10.28,37.78-48.16,65.36-53.17,27.58-5.02-21.52,39.67-4.81,59.72,16.71,20.06,107.81-12.53,96.11,20.9-11.7,33.43-141.24,6.68-90.26,43.45,50.98,36.78,59.34,68.53,40.11,74.38-19.22,5.85-67.8-58.51-84.52-54.33-16.71,4.18.12,78.57-28.3,69.37-28.41-9.19-10.86-76.04-36.77-77.72-25.9-1.67-18.38,65.19-122.85,71.04-104.46,5.85-98.61-97.78-110.31-103.63-11.7-5.85-9.76-1.03-9.76-1.03-9.32,10.96-19.21,20.84-29.59,29.71-41.56,35.58-90.86,55.11-142.26,64-167.36,28.95-357.04-54.88-374.85-64.92-7.79-4.39-14.36-7.69-19.87-10.17-12.39-5.58-26.88-.42-33.25,11.58-55.15,103.81-193.36,82.65-229.61,85.59-38.32,3.1-52.83,59.32-83.9,53.1-31.07-6.21,58.01-55.17,17.62-60.35-40.39-5.18-66.51,7.76-90.9-3.02-43.83-19.39,68.16-22.76,69.15-37.37,1.21-17.98-40.14-41.49-45.7-45.66-13.13-9.85-41.3-52.73,17.73-18.55,59.04,34.17,72.89,24.6,79.75,20.71,18.33-10.4-55.12-60.11-17.79-55.81,22.12,2.54,35.72,16.43,46.29,36.06,8.18,15.2,23.05,25.61,40.04,28.26.64.1,1.28.18,1.92.26,31.02,3.72,47.08-5.12,63.14-13.95,14.73-8.1,34.7-47.64,35.69-72.03.4-9.9-2.32-17.31-9.8-19.11-25.89-6.21-164.54,12.3-206.09,17.61-6.31.81-13.7.97-20.3.87-11.1-.16-22.12-1.93-32.71-5.26-173.53-54.58-149.98-146.81-149.98-146.81,6.51-80.19,160.15-156.51,300.24-87.29,36.69,18.13,89.99,38.5,127.31,46.1,21.81,4.44,38.16,4.52,42.57-2.75,9.21-15.19,6.57-42.61-2.63-69.15-11.08-31.95-31.67-62.65-52.6-69.27-23.96-7.59-54.24,63.2-69.21,47.54-10.16-10.63,13.49-58.46-3.29-72.45-34.21-28.5-99.32,4.04-100.17-24.02-.58-19.16,82.04-17.02,84.18-28.22,3.47-18.23-71.43-40.51-54.38-61.83,8.23-10.28,39.56,5.98,72.52,30.7,32.96,24.72,28.74-3.94,10.34-58.49-9.22-27.33,32.03-20.64,38.72,19.12,3.51,20.86-6.21,75.63,34.17,85.52,12.27,3,25.29,7.68,37.49,12.74,30.34,12.58,54.29,36.83,67,67.12,41,97.66,85.04,108.02,85.04,108.02,38.78,12.26,85.77,25.96,133.8,37.7l.08.02.1.02c34.89,8.52,70.34,16.01,103.58,21.15l.09.02h.02c69.67,10.78,129.65,11.27,154.68-10.51,51.64-44.95-8.61-34.43-24.11-110.93-8.52-42.06,49.06-104.06,94.88-123.71,37.99-16.28,31.42-53.58,11.69-57.52-51.36-10.27-64.68-65.92-47.27-67.91,21.1-2.41,28.78,27.78,42.54,35.12,8.7,4.65,11.45,5.09,19.29,4.04,25.46-3.41-14.69-88.55,6.73-96.81,21.43-8.25,17.55,68.02,48.56,84.82,11.95,6.46,49.07-88.41,72.15-90.06,23.07-1.64-23.76,79.56-28.71,100.99-4.94,21.42,110.05-4.29,90.27,27.03-10.18,16.11-55.23,5.3-92.31,22.95-34.96,16.64-62.15,60.88-68.55,103.28-13.19,87.35,79.11,93.94,79.11,93.94,628.05,34.48,805.17,316.86,832.08,367.7.68,1.27-1,2.45-1.98,1.39Z"/><ellipse class="cls-3" cx="1457.39" cy="1161.69" rx="115.3" ry="45.39" transform="translate(-168.32 250.34) rotate(-9.28)"/><ellipse class="cls-3" cx="798.96" cy="1289.1" rx="69.13" ry="101.33" transform="translate(-623.08 1816.28) rotate(-78.55)"/><path class="cls-3" d="M1220.14,1395.49c-41.56,35.58-90.86,55.11-142.26,64-42.14-18.24-67.81-59.46-59.45-100.73,9.8-48.42,62.75-78.55,118.26-67.31,53.98,10.93,90.51,56.98,83.45,104.04Z"/><path class="cls-3" d="M624.16,1387.08c-6.49,32.04-56.22,49.01-111.07,37.91-24-4.86-45.01-14.29-60.5-26.05.64.1,1.28.18,1.92.26,31.02,3.72,47.08-5.12,63.14-13.95,14.73-8.1,34.7-47.64,35.69-72.03,45.84,14.17,76.63,45.19,70.82,73.86Z"/><path class="cls-3" d="M677.23,1115.81c-6.49,32.04-37.72,52.75-69.77,46.26-22.77-4.62-39.82-21.72-45.45-42.74,21.81,4.44,38.16,4.52,42.57-2.75,9.21-15.19,6.57-42.61-2.63-69.15,9.11-2.79,19.02-3.41,29.01-1.39,32.05,6.49,52.76,37.72,46.27,69.77Z"/><path class="cls-3" d="M989.43,1162.82c-7.44,14.92-31.51,22.55-57.56,17.28-26.14-5.3-45.38-21.79-46.31-38.49l.08.02.1.02c34.89,8.52,70.34,16.01,103.58,21.15l.09.02h.02Z"/><ellipse class="cls-3" cx="1193.1" cy="1033.5" rx="46.59" ry="63.37"/><path class="cls-7" d="M1067.26,1104.97l-90-328"/><path class="cls-7" d="M1067.26,1105.1l90-328"/><path class="cls-7" d="M1498.26,1508.97l-103-404"/><path class="cls-7" d="M1498.26,1508.97l90-328"/><path class="cls-7" d="M1678.26,1508.97l-90-328"/><path class="cls-7" d="M1678.26,1509.1l90-328"/><path class="cls-7" d="M635.74,777.1l-90,328"/><path class="cls-7" d="M642.26,1104.97h-96"/><path class="cls-7" d="M822.26,777.1l-90,328"/><path class="cls-7" d="M822.26,776.97l90,328"/><path class="cls-7" d="M873.26,979.97h-96"/><path class="cls-7" d="M1305.26,777.1l-90,328"/><path class="cls-7" d="M1305.26,776.97l90,328"/><path class="cls-7" d="M1356.26,979.97h-96"/><path class="cls-6" d="M843.48,1513.69l82.97-325.42"/><path class="cls-7" d="M927.62,1513.69h-84.15"/><path class="cls-7" d="M953.56,1332.69h-63.08"/><path class="cls-6" d="M926.44,1188.26c73-3.5,98.5,23.15,101.18,64.15,2.03,31-27.36,77.29-85.74,80.27,65.43,3.13,107.74,56.73,96.24,111.73-9.62,46-55,69.27-110.5,69.27"/><path class="cls-2" d="M1236.85,1537.03c63.71,0,115.35-83.04,115.35-185.47,0-102.43-51.65-185.47-115.35-185.47-63.71,0-115.35,83.04-115.35,185.47,0,102.43,51.65,185.47,115.35,185.47ZM1236.85,1481.78c37.76,0,68.38-58.97,68.38-131.71,0-72.74-30.61-131.71-68.38-131.71-37.76,0-68.38,58.97-68.38,131.71,0,72.74,30.61,131.71,68.38,131.71Z"/></g></svg>