<svg width="164" height="189" viewBox="0 0 164 189" fill="none" xmlns="http://www.w3.org/2000/svg">
<path d="M0.557617 188.209V0.566936H93.8425C113.858 0.566936 129.405 4.67719 140.485 12.8977C151.744 20.9395 157.373 31.93 157.373 45.8691C157.373 56.9489 154.067 66.331 147.454 74.0154C140.842 81.5211 131.46 86.7929 119.308 89.831C132.89 92.1541 143.702 97.6047 151.743 106.183C159.785 114.582 163.806 124.679 163.806 136.473C163.806 152.378 157.462 164.977 144.774 174.27C132.264 183.563 115.555 188.209 94.6467 188.209H0.557617ZM49.8806 74.5515H85.5326C101.438 74.5515 109.39 68.5649 109.39 56.5915C109.39 44.7969 101.438 38.8995 85.5326 38.8995H49.8806V74.5515ZM49.8806 149.608H86.0688C94.468 149.608 100.991 147.911 105.637 144.515C110.462 141.12 112.875 136.205 112.875 129.772C112.875 116.369 103.939 109.667 86.0688 109.667H49.8806V149.608Z" fill="#ED00E1"/>
</svg>
