<svg width="207" height="197" viewBox="0 0 207 197" fill="none" xmlns="http://www.w3.org/2000/svg">
<path d="M0.790222 99.1922C0.790222 70.2417 9.90427 46.4737 28.1324 27.8882C46.3604 9.30267 71.5582 0.00992854 103.725 0.00992854C135.893 -0.347491 161.18 8.94525 179.586 27.8882C198.172 46.8311 207.286 70.5991 206.928 99.1922C206.928 127.964 197.904 151.464 179.854 169.692C161.805 187.741 136.429 196.766 103.725 196.766C71.2007 196.766 45.9137 187.741 27.8643 169.692C9.81496 151.464 0.790222 127.964 0.790222 99.1922ZM153.316 98.9241C153.316 81.2321 148.938 67.1143 140.182 56.5706C131.425 45.8482 119.362 40.487 103.993 40.487C88.6246 40.487 76.4726 45.8482 67.5372 56.5706C58.7806 67.293 54.4023 81.4108 54.4023 98.9241C54.4023 116.259 58.7806 130.198 67.5372 140.741C76.2939 151.106 88.4459 156.289 103.993 156.289C119.362 156.289 131.425 151.106 140.182 140.741C148.938 130.198 153.316 116.259 153.316 98.9241Z" fill="#ED00E1"/>
</svg>
