<svg width="283" height="189" viewBox="0 0 283 189" fill="none" xmlns="http://www.w3.org/2000/svg">
<path d="M48.9835 188.209L0.196533 0.566936H54.8808L66.6754 56.3234C72.0366 81.3424 77.3085 107.88 82.491 135.937C83.0271 132.899 83.7419 129.057 84.6355 124.411C85.529 119.586 86.2439 115.475 86.78 112.08C87.4948 108.685 88.1203 105.646 88.6564 102.966L96.1621 67.0458L112.782 0.566936H173.095L190.251 67.3139C196.506 94.8347 201.242 117.441 204.458 135.133L205.799 126.823C209.015 108.595 213.483 85.1846 219.202 56.5915L231.264 0.566936H283L235.821 188.209H176.848L159.156 117.709C151.829 85.7207 146.557 62.3995 143.341 47.7455C140.303 63.1143 135.12 86.3462 127.793 117.441L109.297 188.209H48.9835Z" fill="#ED00E1"/>
</svg>
